<svg xmlns="http://www.w3.org/2000/svg" width="240" height="240" viewBox="0 0 240 240" fill="none"><path d="M221.239 0H18.7615C8.39981 0 0 8.3998 0 18.7615V221.239C0 231.6 8.39981 240 18.7615 240H221.239C231.6 240 240 231.6 240 221.239V18.7615C240 8.3998 231.6 0 221.239 0Z" fill="#053856"></path><path d="M162.347 74.6154C154.219 66.3867 143.534 62.2596 130.318 62.2596C123.051 62.2596 116.367 63.5256 110.29 66.0575C104.214 68.5894 99.1247 72.1847 95.023 76.8688V60.0822L65.4756 73.9571V173.664H96.4156V119.861C96.4156 109.986 98.7196 102.542 103.353 97.5292C107.986 92.5413 114.19 90.0347 121.988 90.0347C129.001 90.0347 134.344 92.1869 138.04 96.5164C141.737 100.846 143.585 107.378 143.585 116.164V173.664H174.525V113.455C174.525 97.276 170.449 82.8188 162.347 74.5901V74.6154Z" fill="#04FF88"></path></svg>